<svg fill="#62b682" xmlns="http://www.w3.org/2000/svg"  viewBox="0 0 512 512" width="64px" height="64px"><path d="M 90.5 21 C 68.168 21 50 39.168 50 61.5 L 50 411 C 50 416.522 54.477 421 60 421 L 265.48828 421 C 268.22057 424.73451 271.22542 428.25596 274.47266 431.50391 C 292.01866 449.04891 315.06433 457.82031 338.11133 457.82031 C 358.01927 457.82031 377.9231 451.26847 394.28516 438.17773 L 444.17969 488.07031 C 446.13269 490.02231 448.69 491 451.25 491 C 453.81 491 456.36827 490.02231 458.32227 488.07031 C 462.22727 484.16431 462.22727 477.83273 458.32227 473.92773 L 408.42969 424.03516 C 436.67523 388.73031 434.45453 336.92421 401.75391 304.22266 L 401.75195 304.22266 C 393.05782 295.52853 382.6207 288.69411 371.25 284.18555 L 371.25 101 L 371.25 100 C 371.25 97.348 370.19531 94.804688 368.32031 92.929688 L 299.32031 23.929688 C 297.44431 22.054688 294.902 21 292.25 21 L 291.25 21 L 90.5 21 z M 90.5 41 L 281.25 41 L 281.25 101 C 281.25 106.523 285.728 111 291.25 111 L 351.25 111 L 351.25 278.82227 C 350.7756 278.75213 350.30084 278.69528 349.82617 278.63281 C 349.51096 278.59134 349.19616 278.54395 348.88086 278.50586 C 347.93835 278.39194 346.99559 278.2909 346.05273 278.20703 C 346.03709 278.20564 346.0215 278.20451 346.00586 278.20312 C 345.07866 278.12113 344.1515 278.05505 343.22461 278.00195 C 342.88216 277.98235 342.53961 277.9727 342.19727 277.95703 C 341.58116 277.9288 340.96524 277.90226 340.34961 277.88672 C 339.97105 277.87717 339.59316 277.87391 339.21484 277.86914 C 338.65084 277.86202 338.08679 277.85785 337.52344 277.86133 C 337.13379 277.86375 336.74475 277.86948 336.35547 277.87695 C 335.77684 277.88804 335.19878 277.9055 334.62109 277.92773 C 334.23739 277.94251 333.85394 277.95884 333.4707 277.97852 C 332.90144 278.00773 332.33372 278.04399 331.76562 278.08398 C 331.40098 278.10966 331.03599 278.13201 330.67188 278.16211 C 329.89697 278.22617 329.12378 278.30267 328.35156 278.38672 C 328.20458 278.40271 328.05703 278.41492 327.91016 278.43164 C 326.96636 278.53907 326.02497 278.66169 325.08594 278.79883 C 324.84453 278.83408 324.60435 278.87685 324.36328 278.91406 C 323.66876 279.02128 322.97468 279.13246 322.2832 279.25586 C 321.95296 279.31479 321.62442 279.38075 321.29492 279.44336 C 320.6981 279.55678 320.10206 279.67337 319.50781 279.79883 C 319.16419 279.87137 318.82122 279.94689 318.47852 280.02344 C 317.88474 280.15608 317.29207 280.2948 316.70117 280.43945 C 316.36358 280.52209 316.02606 280.60486 315.68945 280.69141 C 315.08511 280.8468 314.48382 281.01173 313.88281 281.17969 C 313.57599 281.26542 313.26881 281.3485 312.96289 281.4375 C 312.36299 281.61205 311.76618 281.79731 311.16992 281.98438 C 310.84509 282.08627 310.51902 282.18346 310.19531 282.28906 C 309.37429 282.55692 308.55754 282.83537 307.74414 283.12695 C 307.68386 283.14856 307.62274 283.16772 307.5625 283.18945 C 306.66904 283.51189 305.78003 283.8522 304.89648 284.20312 C 304.64068 284.30471 304.38775 284.41361 304.13281 284.51758 C 303.54631 284.75679 302.96065 284.99824 302.37891 285.25 C 301.99513 285.41607 301.61406 285.58825 301.23242 285.75977 C 300.74252 285.97996 300.25384 286.20251 299.76758 286.43164 C 299.41624 286.59718 299.06617 286.76536 298.7168 286.93555 C 298.17971 287.19719 297.6456 287.46567 297.11328 287.73828 C 296.81009 287.89354 296.50668 288.04823 296.20508 288.20703 C 295.65936 288.49439 295.11849 288.79092 294.57812 289.08984 C 294.26677 289.26207 293.95406 289.43137 293.64453 289.60742 C 293.02081 289.96221 292.40319 290.32894 291.78711 290.69922 C 291.60486 290.80875 291.41984 290.91256 291.23828 291.02344 C 290.43356 291.5149 289.6346 292.0192 288.84375 292.53711 C 288.59291 292.70137 288.34706 292.8741 288.09766 293.04102 C 287.54931 293.40801 287.00217 293.77649 286.46094 294.15625 C 286.15467 294.37114 285.85275 294.59354 285.54883 294.8125 C 285.07974 295.15046 284.61184 295.49026 284.14844 295.83789 C 283.83668 296.07176 283.52787 296.3106 283.21875 296.54883 C 282.75822 296.90375 282.30026 297.26238 281.8457 297.62695 C 281.53674 297.87475 281.22802 298.12276 280.92188 298.375 C 280.47462 298.74351 280.03097 299.11813 279.58984 299.49609 C 279.29648 299.74746 279.00349 299.99837 278.71289 300.25391 C 278.25019 300.66076 277.79343 301.07675 277.33789 301.49414 C 277.07461 301.73538 276.80772 301.97205 276.54688 302.2168 C 275.84676 302.87368 275.15475 303.54063 274.47266 304.22266 C 271.73441 306.96091 269.18641 309.86441 266.83984 312.91211 C 266.83984 312.91211 266.83984 312.91406 266.83984 312.91406 C 265.27582 314.94547 263.79972 317.03991 262.41797 319.19141 C 262.41797 319.19141 262.41797 319.19336 262.41797 319.19336 C 261.72727 320.26887 261.05993 321.35802 260.41602 322.46094 C 260.41602 322.46094 260.41602 322.46289 260.41602 322.46289 C 258.48379 325.77262 256.76363 329.20137 255.26758 332.72656 C 255.26758 332.72656 255.26758 332.72852 255.26758 332.72852 C 254.76908 333.90321 254.29412 335.08806 253.8457 336.2832 C 253.8457 336.2832 253.8457 336.28516 253.8457 336.28516 C 253.39731 337.4803 252.97365 338.68458 252.57617 339.89844 C 252.57617 339.89844 252.57617 339.90039 252.57617 339.90039 C 252.17872 341.11425 251.80666 342.33753 251.46094 343.56836 C 251.46094 343.56836 251.46094 343.57031 251.46094 343.57031 C 250.76938 346.03258 250.18075 348.52711 249.70117 351.04688 C 249.70117 351.04688 249.70117 351.04883 249.70117 351.04883 C 249.22165 353.5686 248.85078 356.11438 248.58984 358.67773 C 248.47418 359.81365 248.38841 360.95082 248.31641 362.08789 C 248.29777 362.38227 248.28135 362.6763 248.26562 362.9707 C 248.21589 363.90164 248.18088 364.83301 248.16016 365.76367 C 248.15497 365.99678 248.144 366.22982 248.14062 366.46289 C 248.12441 367.58074 248.12898 368.69648 248.1543 369.8125 C 248.16044 370.08293 248.17503 370.35277 248.18359 370.62305 C 248.21171 371.51068 248.25244 372.39765 248.30664 373.2832 C 248.32634 373.60499 248.34601 373.9266 248.36914 374.24805 C 248.44895 375.35737 248.54164 376.46576 248.66211 377.57031 C 248.66859 377.62967 248.677 377.6887 248.68359 377.74805 C 248.80051 378.80073 248.94211 379.84933 249.0957 380.89648 C 249.14457 381.22959 249.19549 381.56206 249.24805 381.89453 C 249.38605 382.76762 249.53781 383.63758 249.70117 384.50586 C 249.74817 384.75563 249.7888 385.00652 249.83789 385.25586 C 250.051 386.3384 250.28672 387.41659 250.53906 388.49023 C 250.60244 388.75987 250.67244 389.02785 250.73828 389.29688 C 250.94924 390.15891 251.17206 391.01771 251.4082 391.87305 C 251.48841 392.16359 251.56729 392.45442 251.65039 392.74414 C 251.95752 393.8148 252.27853 394.88476 252.625 395.94336 C 252.65389 396.03162 252.68568 396.11886 252.71484 396.20703 C 253.04698 397.21128 253.40027 398.20707 253.76758 399.19922 C 253.86087 399.45123 253.95718 399.70194 254.05273 399.95312 C 254.18534 400.30169 254.31032 400.65306 254.44727 401 L 70 401 L 70 61.5 C 70 50.196 79.196 41 90.5 41 z M 301.25 54.142578 L 338.10742 91 L 301.25 91 L 301.25 54.142578 z M 121.25 81 C 115.727 81 111.25 85.477 111.25 91 C 111.25 96.523 115.727 101 121.25 101 L 201.25 101 C 206.773 101 211.25 96.523 211.25 91 C 211.25 85.477 206.773 81 201.25 81 L 121.25 81 z M 121.25 121 C 115.727 121 111.25 125.477 111.25 131 C 111.25 136.523 115.727 141 121.25 141 L 251.25 141 C 256.773 141 261.25 136.523 261.25 131 C 261.25 125.477 256.773 121 251.25 121 L 121.25 121 z M 337.81641 297.86133 C 338.11062 297.86017 338.40478 297.86463 338.69922 297.86719 C 339.19858 297.87151 339.69732 297.87948 340.19727 297.89453 C 340.51535 297.90411 340.8341 297.91771 341.15234 297.93164 C 341.66116 297.95391 342.17057 297.98023 342.67969 298.01367 C 342.99484 298.03437 343.3098 298.05704 343.625 298.08203 C 344.14337 298.12313 344.66131 298.17188 345.17969 298.22461 C 345.48247 298.25542 345.78516 298.28552 346.08789 298.32031 C 346.59315 298.37837 347.09853 298.44449 347.60352 298.51367 C 347.93305 298.55884 348.26245 298.60242 348.5918 298.65234 C 349.07843 298.72607 349.56469 298.81039 350.05078 298.89453 C 350.38878 298.95307 350.72677 299.00867 351.06445 299.07227 C 351.61604 299.17608 352.16626 299.29088 352.7168 299.4082 C 352.96078 299.46023 353.20547 299.50781 353.44922 299.5625 C 354.05442 299.69822 354.65823 299.84782 355.26172 300 C 355.48823 300.05714 355.71515 300.1085 355.94141 300.16797 C 356.75121 300.38074 357.55939 300.60693 358.36523 300.84961 C 369.34323 304.15561 379.45637 310.21323 387.60938 318.36523 C 414.90238 345.65823 414.90238 390.06637 387.60938 417.35938 C 360.31637 444.65238 315.90823 444.65433 288.61523 417.36133 C 285.07623 413.82133 281.8932 409.86461 279.1582 405.59961 C 261.5432 378.14661 265.52123 341.45923 288.61523 318.36523 C 289.35347 317.627 290.10981 316.91515 290.875 316.21484 C 291.07852 316.02857 291.28292 315.84373 291.48828 315.66016 C 292.21292 315.01245 292.94647 314.3776 293.69336 313.76367 C 293.74718 313.71943 293.79958 313.67297 293.85352 313.62891 C 294.66551 312.96551 295.49339 312.32639 296.33008 311.70312 C 296.52156 311.56048 296.71547 311.42178 296.9082 311.28125 C 297.62963 310.75524 298.35934 310.24234 299.09766 309.74609 C 299.23686 309.65253 299.37388 309.5554 299.51367 309.46289 C 300.35439 308.90656 301.20544 308.37121 302.06641 307.85352 C 302.29123 307.71832 302.51799 307.58762 302.74414 307.45508 C 303.45938 307.03591 304.18218 306.63083 304.91016 306.23828 C 305.1058 306.13278 305.29956 306.02349 305.49609 305.91992 C 306.39651 305.44543 307.30449 304.99037 308.22266 304.55664 C 308.37951 304.48254 308.53796 304.41275 308.69531 304.33984 C 309.49254 303.97048 310.29806 303.61783 311.10742 303.2793 C 311.31443 303.19271 311.52075 303.1041 311.72852 303.01953 C 312.66684 302.63764 313.61154 302.27395 314.56445 301.93359 C 314.71093 301.88127 314.85906 301.83454 315.00586 301.7832 C 315.85025 301.48795 316.70009 301.20975 317.55469 300.94727 C 317.7596 300.88432 317.96446 300.82082 318.16992 300.75977 C 320.14468 300.17307 322.14289 299.67389 324.16211 299.26367 C 324.38973 299.21742 324.6176 299.17289 324.8457 299.12891 C 325.85543 298.93423 326.86846 298.75361 327.88672 298.60352 C 327.89519 298.60227 327.90363 298.60086 327.91211 298.59961 C 328.91579 298.45204 329.92501 298.33241 330.93555 298.22852 C 331.17485 298.20391 331.41466 298.1823 331.6543 298.16016 C 332.57931 298.07469 333.50621 298.00566 334.43555 297.95703 C 334.5346 297.95185 334.63333 297.94226 334.73242 297.9375 C 335.7581 297.8882 336.78698 297.86541 337.81641 297.86133 z"/></svg>