<svg fill="#62b682" xmlns="http://www.w3.org/2000/svg"  viewBox="0 0 80 80" width="80px" height="80px"><path d="M 15 11 C 12.250484 11 10 13.250484 10 16 L 10 52 C 10 53.674589 10.888208 55.091322 12.162109 56 C 10.888208 56.908678 10 58.325411 10 60 L 10 66 C 10 68.749516 12.250484 71 15 71 L 65 71 C 67.749516 71 70 68.749516 70 66 L 70 60 C 70 58.325411 69.111792 56.908678 67.837891 56 C 69.111792 55.091322 70 53.674589 70 52 L 70 16 C 70 13.250484 67.749516 11 65 11 L 15 11 z M 15 13 L 65 13 C 66.668484 13 68 14.331516 68 16 L 68 52 C 68 53.668484 66.668484 55 65 55 L 65 57 C 66.668484 57 68 58.331516 68 60 L 68 66 C 68 67.668484 66.668484 69 65 69 L 15 69 C 13.331516 69 12 67.668484 12 66 L 12 60 C 12 58.331516 13.331516 57 15 57 L 15 55 C 13.331516 55 12 53.668484 12 52 L 12 16 C 12 14.331516 13.331516 13 15 13 z M 16 17 L 16 18 L 16 51 L 64 51 L 64 17 L 16 17 z M 18 19 L 22.638672 19 L 33.332031 27.910156 L 25.445312 33.167969 L 24.183594 34.009766 L 25.400391 34.800781 L 38 43 L 27.650391 34.101562 L 35.554688 28.832031 L 36.669922 28.089844 L 35.640625 27.232422 L 33.701172 25.615234 L 40.619141 23.935547 L 44.529297 30.269531 L 45.058594 31.123047 L 45.464844 30.279297 L 48 25 L 45.076172 28.982422 L 41.708984 22.595703 L 41.4375 22.078125 L 40.822266 22.201172 L 31.789062 24.021484 L 25.761719 19 L 62 19 L 62 38.662109 L 55.806641 34.150391 L 54.666016 33.318359 L 54.259766 34.669922 L 52.939453 39.056641 L 48.158203 33.486328 L 52.548828 41.654297 L 53.638672 43.681641 L 54.330078 41.378906 L 55.769531 36.595703 L 62 41.134766 L 62 49 L 18 49 L 18 19 z M 18 55 C 17.448 55 17 55.448 17 56 C 17 56.552 17.448 57 18 57 C 18.552 57 19 56.552 19 56 C 19 55.448 18.552 55 18 55 z M 22 55 C 21.448 55 21 55.448 21 56 C 21 56.552 21.448 57 22 57 C 22.552 57 23 56.552 23 56 C 23 55.448 22.552 55 22 55 z M 26 55 C 25.448 55 25 55.448 25 56 C 25 56.552 25.448 57 26 57 C 26.552 57 27 56.552 27 56 C 27 55.448 26.552 55 26 55 z M 30 55 C 29.448 55 29 55.448 29 56 C 29 56.552 29.448 57 30 57 C 30.552 57 31 56.552 31 56 C 31 55.448 30.552 55 30 55 z M 34 55 C 33.448 55 33 55.448 33 56 C 33 56.552 33.448 57 34 57 C 34.552 57 35 56.552 35 56 C 35 55.448 34.552 55 34 55 z M 38 55 C 37.448 55 37 55.448 37 56 C 37 56.552 37.448 57 38 57 C 38.552 57 39 56.552 39 56 C 39 55.448 38.552 55 38 55 z M 42 55 C 41.448 55 41 55.448 41 56 C 41 56.552 41.448 57 42 57 C 42.552 57 43 56.552 43 56 C 43 55.448 42.552 55 42 55 z M 46 55 C 45.448 55 45 55.448 45 56 C 45 56.552 45.448 57 46 57 C 46.552 57 47 56.552 47 56 C 47 55.448 46.552 55 46 55 z M 50 55 C 49.448 55 49 55.448 49 56 C 49 56.552 49.448 57 50 57 C 50.552 57 51 56.552 51 56 C 51 55.448 50.552 55 50 55 z M 54 55 C 53.448 55 53 55.448 53 56 C 53 56.552 53.448 57 54 57 C 54.552 57 55 56.552 55 56 C 55 55.448 54.552 55 54 55 z M 58 55 C 57.448 55 57 55.448 57 56 C 57 56.552 57.448 57 58 57 C 58.552 57 59 56.552 59 56 C 59 55.448 58.552 55 58 55 z M 62 55 C 61.448 55 61 55.448 61 56 C 61 56.552 61.448 57 62 57 C 62.552 57 63 56.552 63 56 C 63 55.448 62.552 55 62 55 z M 62 61 C 60.895 61 60 61.895 60 63 C 60 64.105 60.895 65 62 65 C 63.105 65 64 64.105 64 63 C 64 61.895 63.105 61 62 61 z M 17 62 L 17 64 L 18 64 L 42 64 L 43 64 L 43 62 L 42 62 L 18 62 L 17 62 z"/></svg>