<svg fill="#62b682" xmlns="http://www.w3.org/2000/svg"  viewBox="0 0 64 64" width="64px" height="64px"><path d="M 30 3 L 29.902344 4.1738281 C 23.167888 5.188189 18 10.982673 18 18 L 18 18.429688 C 18 19.367687 17.399766 20.199094 16.509766 20.496094 L 15 21 L 15 24 L 49 24 L 49 21 L 47.490234 20.496094 C 46.600234 20.199094 46 19.367688 46 18.429688 L 46 18 C 46 12.014 42.237125 6.9209688 36.953125 4.9179688 L 36.484375 14 L 34.916016 14 L 34 3 L 30 3 z M 18 26 L 18 26.023438 C 17.592 26.666438 17 27.879 17 29.5 C 17 31.981 18.503656 33.697 19.222656 34.375 C 20.018656 36.442 21.406266 38.448172 22.947266 40.201172 L 22.505859 46.613281 L 5 52 L 5.4433594 54.658203 C 5.7643594 56.586203 7.4336719 58 9.3886719 58 L 54.611328 58 C 56.566328 58 58.234641 56.586203 58.556641 54.658203 L 59 52 L 41.494141 46.613281 L 41.052734 40.201172 C 42.593734 38.447172 43.981344 36.442 44.777344 34.375 C 45.496344 33.697 47 31.981 47 29.5 C 47 27.879 46.408 26.666438 46 26.023438 L 46 26 L 43 26 L 43 26.5 L 43.015625 27.050781 L 43.349609 27.464844 C 43.376609 27.497844 44 28.277 44 29.5 C 44 31.179 42.59875 32.300688 42.59375 32.304688 L 42.232422 32.578125 L 42.082031 33.007812 C 40.325031 38.054812 34.512516 42.321 33.228516 43 L 30.769531 43 C 29.485531 42.321 23.673016 38.054812 21.916016 33.007812 L 21.767578 32.578125 L 21.40625 32.304688 C 21.39325 32.293687 20 31.191 20 29.5 C 20 28.277 20.623719 27.497469 20.636719 27.480469 L 21 27.058594 L 21 26 L 18 26 z M 25.761719 43.007812 C 27.856719 44.836813 29.778 46 30.5 46 L 33.5 46 C 34.222 46 36.143281 44.836813 38.238281 43.007812 L 38.818359 51.427734 C 37.777842 52.014325 35.523431 53 32 53 C 28.476569 53 26.222158 52.014325 25.181641 51.427734 L 25.761719 43.007812 z"/></svg>