<svg xmlns="http://www.w3.org/2000/svg"  viewBox="0 0 64 64" width="64px" height="64px"><path fill="#d99899" d="M25.335,38.665s-8.272-.454-13.807,4.016L6.243,42.2,2,46.444l5.548,1.109a18.484,18.484,0,0,0-1.789,4.064l6.624,6.624a18.484,18.484,0,0,0,4.064-1.789L17.556,62,21.8,57.757l-.48-5.285C25.789,46.937,25.335,38.665,25.335,38.665Z"/><circle cx="47" cy="17" r="15" fill="#7cb2f8"/><path fill="#d9e1e6" d="M12.383,58.241a20.629,20.629,0,0,0,8-4.726c5.467-5.468,4.95-14.85,4.95-14.85s-9.382-.517-14.85,4.95a20.629,20.629,0,0,0-4.726,8Z"/><circle cx="15.435" cy="48.565" r="3" fill="#95c3f8"/><circle cx="47" cy="17" r="11" fill="#c6def8"/><polygon fill="#d98285" points="47 10.794 48.854 14.55 53 15.153 50 18.077 50.708 22.206 47 20.257 43.292 22.206 44 18.077 41 15.153 45.146 14.55 47 10.794"/><path d="M47,1A16,16,0,1,0,63,17,16.019,16.019,0,0,0,47,1Zm0,30A14,14,0,1,1,61,17,14.015,14.015,0,0,1,47,31Z"/><path d="M15.435,52.562a4,4,0,1,0-2.829-1.168A3.989,3.989,0,0,0,15.435,52.562ZM14.021,47.15a2,2,0,1,1,0,2.829A2,2,0,0,1,14.021,47.15Z"/><path d="M6.026,48.268a17.621,17.621,0,0,0-1.23,3.08,1,1,0,0,0,.256.976l6.624,6.624a1,1,0,0,0,.977.256,17.613,17.613,0,0,0,3.079-1.23l.844,4.222a1,1,0,0,0,1.687.511l4.243-4.242a1,1,0,0,0,.289-.8l-.446-4.908c4.376-5.738,4-13.78,3.984-14.149a1,1,0,0,0-.943-.943c-.371-.024-8.411-.392-14.149,3.984l-4.908-.446a1,1,0,0,0-.8.289L1.293,45.736A1,1,0,0,0,1.8,47.424Zm12.144,11.7-.605-3.026a20.817,20.817,0,0,0,2.956-2.2l.24,2.633Zm6.172-20.315c-.044,2.435-.561,9.047-4.664,13.151a19.865,19.865,0,0,1-7.013,4.3L6.892,51.336a19.874,19.874,0,0,1,4.3-7.014C15.3,40.219,21.908,39.7,24.342,39.657ZM6.619,43.239l2.632.24a20.76,20.76,0,0,0-2.2,2.956l-3.026-.606Z"/><rect width="4.862" height="2" x="1.385" y="54.941" transform="rotate(-45 3.816 55.94)"/><rect width="4.862" height="2" x="5.628" y="59.184" transform="rotate(-45 8.059 60.184)"/><rect width="4.862" height="2" x="1.788" y="58.781" transform="rotate(-45 4.22 59.781)"/><path d="M47,5A12,12,0,1,0,59,17,12.013,12.013,0,0,0,47,5Zm0,22A10,10,0,1,1,57,17,10.011,10.011,0,0,1,47,27Z"/><path d="M53.144,14.164l-3.626-.527L47.9,10.352a1.041,1.041,0,0,0-1.794,0l-1.621,3.285-3.626.527a1,1,0,0,0-.554,1.705l2.623,2.558-.619,3.61a1,1,0,0,0,1.451,1.054L47,21.387l3.243,1.7a1,1,0,0,0,1.451-1.054l-.619-3.61L53.7,15.869a1,1,0,0,0-.554-1.7Zm-3.842,3.2a1,1,0,0,0-.288.885l.366,2.132-1.915-1.006a1,1,0,0,0-.93,0L44.62,20.378l.366-2.132a1,1,0,0,0-.288-.885l-1.549-1.509,2.141-.312a1,1,0,0,0,.753-.547L47,13.054l.957,1.939a1,1,0,0,0,.753.547l2.141.312Z"/><rect width="19" height="2" x="10.439" y="26.101" transform="rotate(-45 19.94 27.1)"/><rect width="2" height="2" x="10.101" y="34.94" transform="rotate(-45 11.1 35.94)"/><rect width="19" height="2" x="27.389" y="43.092" transform="rotate(-45 36.89 44.092)"/><rect width="1.971" height="2" x="27.075" y="51.921" transform="rotate(-45 28.06 52.92)"/></svg>