<svg xmlns="http://www.w3.org/2000/svg"  viewBox="0 0 24 24" width="24px" height="24px"><path fill="#e91e63" d="m8.843 12.651c-1.392 0-2.521 1.13-2.521 2.522v6.306c0 1.392 1.129 2.521 2.521 2.521 1.391 0 2.52-1.129 2.52-2.521v-6.306c0-1.393-1.129-2.522-2.52-2.522z"/><path fill="#cb1a56" d="m8.843 12.651c-1.392 0-2.521 1.13-2.521 2.522v6.306c0 1.392 1.129 2.521 2.521 2.521z"/><path fill="#4caf50" d="m12.641 2.522v6.325c0 1.392 1.129 2.521 2.521 2.521 1.393 0 2.52-1.129 2.52-2.521v-6.325c0-1.392-1.128-2.521-2.52-2.521-1.393 0-2.521 1.129-2.521 2.521z"/><path fill="#429846" d="m15.161.001c-1.392 0-2.521 1.129-2.521 2.521v6.325c0 1.392 1.129 2.521 2.521 2.521z"/><path fill="#00bcd4" d="m2.524 11.37h6.318c1.393 0 2.522-1.13 2.522-2.524 0-1.393-1.13-2.523-2.522-2.523h-6.318c-1.393 0-2.523 1.13-2.523 2.523.001 1.394 1.131 2.524 2.523 2.524z"/><path fill="#00a4b9" d="m11.365 8.847h-11.363c0 1.393 1.13 2.524 2.523 2.524h6.318c1.392-.001 2.522-1.131 2.522-2.524z"/><path fill="#ff9800" d="m21.48 12.649h-6.318c-1.392 0-2.522 1.13-2.522 2.523s1.13 2.523 2.522 2.523h6.318c1.392 0 2.522-1.13 2.522-2.523s-1.13-2.523-2.522-2.523z"/><path fill="#de8400" d="m24.002 15.172h-11.363c0 1.393 1.13 2.523 2.522 2.523h6.318c1.393 0 2.523-1.13 2.523-2.523z"/><path fill="#e91e63" d="m.018 15.172c0 1.393 1.13 2.523 2.523 2.523s2.523-1.13 2.523-2.523v-2.524h-2.52-.002c-1.394.001-2.524 1.131-2.524 2.524z"/><path fill="#cb1a56" d="m4.997 12.649h-2.453-.002c-1.393 0-2.523 1.13-2.523 2.524 0 .679.269 1.296.706 1.75z"/><path fill="#4caf50" d="m21.457 6.324c-1.391 0-2.518 1.127-2.518 2.518v.005 2.523h2.521c1.394 0 2.523-1.13 2.523-2.523s-1.13-2.523-2.523-2.523z"/><path fill="#429846" d="m21.46 6.324h-.003c-1.391 0-2.518 1.127-2.518 2.518v.005 2.523h.013l4.299-4.299c-.456-.462-1.09-.747-1.791-.747z"/><path fill="#00bcd4" d="m8.846-.001h-.003c-1.393 0-2.522 1.13-2.522 2.523s1.13 2.523 2.522 2.523h2.521v-2.523-.005c-.001-1.391-1.128-2.518-2.518-2.518z"/><path fill="#00a4b9" d="m7.111.687c-.487.461-.791 1.112-.791 1.835 0 1.393 1.13 2.523 2.522 2.523h2.521v-.105z"/><path fill="#ff9800" d="m17.682 21.476c0-1.392-1.128-2.521-2.52-2.521h-2.521v2.523c.001 1.391 1.129 2.519 2.521 2.519s2.52-1.129 2.52-2.521z"/><path fill="#de8400" d="m12.656 18.955h-.016v2.523c.001 1.391 1.129 2.519 2.521 2.519.7 0 1.334-.286 1.79-.747z"/></svg>