<svg fill="#00854d" xmlns="http://www.w3.org/2000/svg"  viewBox="0 0 50 50" width="50px" height="50px"><path d="M 13 3 C 10.242188 3 8 5.242188 8 8 C 8 10.414063 9.722656 12.4375 12 12.90625 L 12 35.09375 C 12.328125 35.046875 12.660156 35 13 35 C 13.339844 35 13.671875 35.046875 14 35.09375 L 14 26.90625 C 16.300781 30.566406 20.367188 33 25 33 L 30.09375 33 C 30.046875 32.671875 30 32.339844 30 32 C 30 31.660156 30.046875 31.328125 30.09375 31 L 25 31 C 18.933594 31 14 26.066406 14 20 L 14 12.90625 C 16.277344 12.4375 18 10.414063 18 8 C 18 5.242188 15.757813 3 13 3 Z M 37 27 C 34.242188 27 32 29.242188 32 32 C 32 34.757813 34.242188 37 37 37 C 39.757813 37 42 34.757813 42 32 C 42 29.242188 39.757813 27 37 27 Z M 13 37 C 10.242188 37 8 39.242188 8 42 C 8 44.757813 10.242188 47 13 47 C 15.757813 47 18 44.757813 18 42 C 18 39.242188 15.757813 37 13 37 Z"/></svg>