<?xml version="1.0" encoding="UTF-8"?>
<svg version="1.1" viewBox="0 0 2521 2521" xmlns="http://www.w3.org/2000/svg">
 <path d="m1053.3 1612.8c-0.255-0.4125-1.0894-0.75-1.8544-0.75-1.7081 0-9.3379-5.0683-11.913-7.9133-1.0387-1.1477-2.3812-2.0895-2.9835-2.0928-0.6022-0-3.5338-2.2534-6.5146-5-2.9808-2.7467-5.9071-4.9939-6.503-4.9939-0.5958 0-4.5856-3.15-8.8662-7s-8.1408-7-8.5781-7-1.3388-1.0159-2.0033-2.2575c-0.6645-1.2417-2.8781-3.3588-4.919-4.7047-2.0409-1.3459-5.9608-4.305-8.7108-6.5758-2.75-2.2709-5.7321-4.5413-6.6269-5.0454-2.0931-1.1793-10.921-8.6865-16.763-14.256-2.5033-2.3864-5.9148-5.2779-7.581-6.4255-1.6662-1.1476-5.2795-4.0669-8.0295-6.4873-8.6126-7.5802-24.568-20.682-27.095-22.248-1.3308-0.825-2.6491-2.2168-2.9296-3.093-0.2805-0.8761-2.6396-2.9754-5.2425-4.6652s-6.7098-4.9012-9.1265-7.1364c-2.4167-2.2353-5.4683-4.768-6.7813-5.6283-1.313-0.8603-5.1632-4.1321-8.5561-7.2707-3.3929-3.1385-7.696-7.0564-9.5625-8.7064-1.8665-1.65-5.5978-5.128-8.2919-7.7289-2.694-2.601-5.9691-4.9978-7.278-5.3263s-2.9116-1.5755-3.5616-2.771c-0.65001-1.1956-3.9702-4.2841-7.3782-6.8634-3.408-2.5792-9.4091-7.5292-13.336-11-3.9267-3.4707-11.706-10.135-17.287-14.81-27.807-23.293-30.54-25.627-35.716-30.5-6.457-6.0792-12.553-11.573-17.755-16-2.5848-2.2-6.3771-5.575-8.4274-7.5-13.997-13.142-21.739-20.746-29.073-28.557-4.6184-4.9185-12.499-13.218-17.513-18.443s-14.005-14.9-19.981-21.5c-5.976-6.6-12.608-13.838-14.737-16.086s-3.8716-4.3139-3.8716-4.5932-1.3127-2.0409-2.9171-3.9146-6.6447-7.9067-11.201-13.407-8.8683-10.36-9.5829-10.8-1.945-2.0148-2.7341-3.5-4.6583-6.3003-8.598-10.7c-3.9398-4.4-7.7618-9.35-8.4934-11-0.73155-1.65-3.0499-4.9084-5.1519-7.241-5.2792-5.8582-8.3218-9.8964-8.3218-11.045 0-0.5332-0.65326-1.5116-1.4517-2.1742-1.3162-1.0923-4.6104-5.9232-18.84-27.628-2.5559-3.8987-4.9606-7.9487-5.3438-9-0.38322-1.0514-1.972-3.5514-3.5306-5.5555-1.5586-2.0042-2.8339-4.081-2.8339-4.6151 0-0.5342-0.94721-2.1755-2.1049-3.6472-2.5832-3.284-5.5014-8.3766-11.514-20.094-2.5402-4.95-6.1122-11.7-7.9378-15-7.2289-13.067-21.443-42.878-21.443-44.972 0-0.7058-0.64607-1.8195-1.4357-2.4749-0.78965-0.6553-1.747-2.6229-2.1274-4.3724s-1.9399-5.8809-3.4654-9.1809c-1.5255-3.3-3.0982-7.125-3.4949-8.5s-1.0429-2.95-1.436-3.5-1.7393-3.925-2.9915-7.5c-1.2522-3.575-2.8558-7.85-3.5634-9.5s-2.9329-8.4-4.9449-15-4.2411-13.35-4.9534-15-2.0833-5.7-3.0466-9-2.3587-7.8-3.1008-10-2.3097-8.275-3.4835-13.5-2.5912-10.85-3.1498-12.5c-0.96507-2.8504-2.125-7.787-5.287-22.5-0.7683-3.575-2.1297-9.425-3.0254-13-0.89567-3.575-2.231-11.675-2.9674-18s-1.8168-13.525-2.4008-16c-0.58409-2.475-1.5759-10.575-2.2041-18s-1.5276-17.775-1.9987-23c-0.9843-10.917-2.6006-20.049-2.7979-15.809-0.0688 1.48-0.46267 2.8996-0.87517 3.1545-1.2676 0.78343-0.5203-488.78 0.77058-504.85 1.8779-23.378 8.4562-59.968 11.947-66.454 0.72645-1.3496 1.8889-4.4996 2.5832-7 1.8495-6.6602 10.646-27.61 16.744-39.877 5.1625-10.385 15.438-26.625 23.984-37.905 2.3213-3.0641 5.6103-7.4145 7.3089-9.6675 7.2756-9.6507 30.282-31.727 48.93-46.951 8.5795-7.0046 32.338-21.245 47.644-28.556 19.878-9.4951 49.789-19.539 64.338-21.604 2.75-0.39032 7.7-1.3154 11-2.0558 16.473-3.6956 58.75-4.2786 80.5-1.1102 21.62 3.1496 25.732 3.8981 35 6.372 5.225 1.3947 11.75 3.0958 14.5 3.7802 5.5374 1.3782 21.551 7.2499 30.18 11.066 3.063 1.3546 6.0826 2.4629 6.7103 2.4629 0.62765 0 2.7092 0.88761 4.6256 1.9725 1.9164 1.0849 7.0844 3.737 11.484 5.8936 8.3304 4.083 39.984 24.739 41.478 27.067 0.28702 0.44717 2.1128 1.887 4.0573 3.1996 8.6401 5.8324 34.335 30.301 40.814 38.867 1.4561 1.925 4.4952 5.3825 6.7536 7.6834 2.2584 2.3009 4.8587 5.7693 5.7784 7.7075 0.9198 1.9383 2.1131 3.7966 2.6519 4.1295 1.3018 0.80454 8.7885 12.362 13.266 20.48 11.959 21.681 20.607 41.702 24.19 56 1.3092 5.225 3.3483 12.65 4.5313 16.5s2.5335 10.342 3.0013 14.427c0.4677 4.0847 1.0997 8.4203 1.4045 9.6346 0.3048 1.2144 1.4607 9.2684 2.5687 17.898 1.9869 15.474 2.0145 20.666 2.0108 377.76-0 253.95 0.3133 362.46 1.0579 363.35 0.8598 1.036 54.25 1.1688 280.75 0.6985 216.53-0.4496 283.07-0.3035 294.69 0.6471 14.68 1.2016 34.064 3.6903 35.459 4.5527 0.3864 0.2388 4.7881 1.3259 9.7816 2.4158 24.87 5.4279 50.2 15.769 74.067 30.238 21.507 13.038 36.331 24.828 53.294 42.385 23.272 24.088 39.357 47.959 52.887 78.486 7.8703 17.758 8.933 20.496 11.063 28.5 1.171 4.4 2.9611 11.15 3.9779 15 8.9601 33.924 10.955 71.676 5.8924 111.5-6.0937 47.934-26.641 95.648-58.304 135.39-29.438 36.951-74.972 68.854-119.9 84.009-22.399 7.5551-43.333 12.183-61.715 13.642-15.673 1.2443-582.9 1.9312-583.65 0.7068zm588.15-2.2567c7.7-0.807 17.375-2.3162 21.5-3.3537 4.125-1.0376 9.2031-2.1917 11.285-2.5649 5.6646-1.0153 28.046-8.3178 37.715-12.306 14.41-5.9429 32.706-15.692 46.411-24.73 50.049-33.008 88.961-85.049 107.52-143.8 8.6398-27.346 12.226-52.009 12.321-84.734 0.086-29.486-2.8841-52.896-9.7683-77-0.8639-3.025-2.3837-8.425-3.3773-12s-2.7214-8.525-3.8396-11-2.365-5.625-2.7708-7c-2.0883-7.0776-16.771-34.622-25.155-47.191-14.633-21.937-24.877-33.926-42.955-50.277-18.973-17.16-35.287-28.236-59.43-40.348-18.542-9.302-31.146-13.983-51.961-19.298-20.575-5.2538-31.484-6.7936-56-7.9046-22.231-1.0075-290.58-1.0571-461.96-0.085l-106.46 0.6037 0.2492 268.5c0.137 147.68 0.3042 269.4 0.3715 270.5 0.067 1.1-0.2244 2.7875-0.6483 3.75-0.7329 1.6644 13.258 1.749 286.09 1.7302 245.01-0.017 288.9-0.2338 300.86-1.4869z" fill="#fac72a"/>
 <path d="m744.57 2453.4c-22.797-2.3654-49.154-8.3173-77.572-17.518-40.28-13.04-76.431-36.651-108.31-70.735-22.565-24.129-43.404-56.407-53.999-83.642-9.9717-25.633-14.606-45.02-18.764-78.5-2.0455-16.471-2.0495-17.704-2.24-692.73-0.105-371.93 0.0878-675.19 0.42837-673.92 0.3406 1.2735 0.9421 7.2274 1.3367 13.231s1.2836 11.815 1.9756 12.915c0.72727 1.156 1.5158 7.2088 1.8687 14.344 0.3358 6.7891 1.0387 12.864 1.5621 13.5 0.52334 0.63591 1.2728 5.8812 1.6656 11.656s1.3316 12.01 2.0864 13.856c0.75483 1.8459 1.1598 3.7002 0.90005 4.1205s0.13601 3.1851 0.87958 6.1438c0.74356 2.9587 2.074 8.7545 2.9566 12.879s2.0404 9.525 2.5729 12c0.53256 2.475 2.0585 8.55 3.391 13.5 1.3325 4.95 2.7027 10.853 3.0448 13.118 0.34217 2.2647 1.2986 5.4147 2.1253 7s1.506 4.0724 1.5093 5.527c9e-3 3.8925 3.7762 15.42 5.5093 16.858 0.82326 0.6833 1.495 1.7497 1.4928 2.3698-0.0102 2.8607 8.8374 28.553 13.572 39.412 0.78754 1.8062 1.4319 3.6745 1.4319 4.1519s1.8 4.6735 4 9.3246c2.2 4.6512 4 9.1402 4 9.9757s0.675 2.0792 1.5 2.7639 1.5 1.8143 1.5 2.5102 1.4088 4.3533 3.1307 8.1275c1.7219 3.7743 4.2556 9.3373 5.6305 12.362 4.1127 9.0486 10.424 21.397 11.756 23 0.68532 0.825 1.5746 2.625 1.9761 4 0.40155 1.375 2.0606 4.6943 3.6867 7.3763 1.6262 2.6819 4.0546 7.1819 5.3966 10 1.342 2.818 4.2387 8.0487 6.4372 11.624s4.3964 7.4 4.8843 8.5c0.4879 1.1 2.2854 3.7494 3.9944 5.8875 1.709 2.1381 3.1073 4.4282 3.1073 5.089s1.1346 2.7364 2.5214 4.6125c3.9415 5.3322 18.8 27.632 20.573 30.875 0.87692 1.6045 3.0144 4.5346 4.75 6.5113 1.7356 1.9768 3.1556 4.0274 3.1556 4.557s1.575 2.6327 3.5 4.6735c1.925 2.0409 3.5 4.2402 3.5 4.8873 0 0.6472 1.125 1.9138 2.5 2.8147 1.375 0.901 2.5 2.2145 2.5 2.9189s1.6134 2.8315 3.5853 4.7269c1.9719 1.8954 4.1837 4.5875 4.9151 5.9824 0.7314 1.395 3.2805 4.6127 5.6647 7.1505 5.4145 5.7635 12.04 13.536 17.645 20.7 2.3708 3.0302 5.1833 6.1207 6.25 6.8678 1.0667 0.7472 1.9395 1.9856 1.9395 2.7521s0.5727 1.7535 1.2727 2.1933c0.69996 0.4398 6.1175 6.1997 12.039 12.8 5.9215 6.6 11.408 12.675 12.193 13.5 13.771 14.475 21.023 22.309 22.182 23.964 0.78443 1.1199 2.0869 2.0362 2.8943 2.0362 0.80743 0 1.8596 1.0299 2.3382 2.2887s2.6457 3.8928 4.8159 5.8534c2.1701 1.9606 4.6168 4.5229 5.4371 5.6939 0.82026 1.1711 4.4288 4.7246 8.0189 7.8966 8.5622 7.5651 24.111 21.823 28.768 26.38 2.0308 1.9872 4.9367 4.4283 6.4575 5.4248 1.5208 0.9964 3.165 2.8636 3.6538 4.1493 0.4888 1.2856 2.1353 2.874 3.6588 3.5297s4.1404 2.5626 5.8153 4.2377c4.0458 4.0462 14.325 12.693 17.455 14.682 1.375 0.874 4.4701 3.5634 6.878 5.9763 2.4079 2.413 6.9797 6.4123 10.159 8.8873 3.1798 2.475 8.8914 7.2 12.692 10.5s8.6299 7.35 10.731 9c2.101 1.65 4.6006 3.8438 5.5547 4.875 5.0655 5.4755 10.87 10.514 13.942 12.103 1.51 0.7808 3.511 2.5882 4.4468 4.0163 0.93576 1.4282 2.9151 3.1199 4.3985 3.7593 1.4834 0.6395 5.2259 3.6565 8.3166 6.7045 3.0907 3.048 8.8407 8.2418 12.778 11.542 3.937 3.3 9.2832 7.8533 11.88 10.118 2.5973 2.2651 6.1848 4.8642 7.9723 5.7757s3.25 2.0574 3.25 2.5465 2.3625 2.6986 5.25 4.9101c8.297 6.3544 10.561 8.2453 17.837 14.899 3.7588 3.4375 7.5479 6.25 8.4203 6.25s2.3527 1.3472 3.2896 2.9937 2.0854 2.9965 2.5523 3c0.46683 0 2.0875 1.2438 3.6014 2.7563 4.5219 4.5176 12.502 11.237 15.626 13.158 1.608 0.9885 5.1736 3.8838 7.9236 6.434 2.75 2.5501 5.322 4.6414 5.7155 4.6472 0.39354 0.01 2.0206 1.2482 3.6156 2.7607 1.5951 1.5125 5.9272 5.225 9.627 8.25s8.0508 6.7375 9.6689 8.25 3.3591 2.75 3.8688 2.75c0.5098 0 2.8568 1.8397 5.2156 4.0883 2.3587 2.2485 5.1886 4.9218 6.2886 5.9405 1.1 1.0188 4.0879 2.7418 6.6398 3.829s4.941 2.4639 5.3091 3.0594c0.368 0.5956 1.7699 1.0828 3.1152 1.0828h2.4461l-0.3644 286.25c-0.3892 305.71-0.2484 296.84-5.1335 323.25-7.8118 42.236-21.03 75.303-43.317 108.36-25.092 37.222-61.773 70.532-100.2 90.987-19.069 10.152-51.537 21.953-71 25.806-15.969 3.1615-25.349 4.4855-41.057 5.7951-21.563 1.7978-30.589 1.787-48.371-0.058z" fill="#f82a78"/>
 <path d="m1048.4 1611.9c-0.3681-0.5955-2.7572-1.9722-5.3091-3.0594s-5.5398-2.8102-6.6398-3.829c-1.1-1.0187-3.9299-3.692-6.2886-5.9405-2.3588-2.2486-4.7058-4.0883-5.2156-4.0883-0.5097 0-2.2507-1.2375-3.8688-2.75s-5.9691-5.225-9.6689-8.25-8.0319-6.7375-9.627-8.25c-1.595-1.5125-3.222-2.7548-3.6156-2.7607-0.39354-0.01-2.9655-2.0971-5.7155-4.6472-2.75-2.5502-6.3156-5.4455-7.9236-6.434-3.1241-1.9207-11.104-8.6405-15.626-13.158-1.5139-1.5125-3.1346-2.7528-3.6014-2.7563-0.46683-0-1.6154-1.3535-2.5523-3s-2.4172-2.9937-3.2896-2.9937-4.6615-2.8125-8.4203-6.25c-7.276-6.654-9.5397-8.5449-17.837-14.899-2.8875-2.2115-5.25-4.421-5.25-4.9101s-1.4625-1.635-3.25-2.5465-5.375-3.5106-7.9723-5.7757c-2.5973-2.2651-7.9435-6.8184-11.88-10.118-3.937-3.3-9.687-8.4938-12.778-11.542-3.0907-3.048-6.8332-6.065-8.3166-6.7045-1.4834-0.6394-3.4627-2.3311-4.3985-3.7593-0.93576-1.4281-2.9368-3.2355-4.4468-4.0163-3.014-1.5586-8.9723-6.731-13.942-12.103-0.95405-1.0312-3.4536-3.225-5.5547-4.875-2.101-1.65-6.9299-5.7-10.731-9s-9.5125-8.025-12.692-10.5c-3.1798-2.475-7.7516-6.4743-10.159-8.8873-2.4079-2.4129-5.503-5.1023-6.878-5.9763-3.1294-1.9891-13.409-10.636-17.455-14.682-1.6749-1.6751-4.2917-3.582-5.8153-4.2377s-3.17-2.2441-3.6588-3.5297c-0.4888-1.2857-2.133-3.1529-3.6538-4.1493-1.5208-0.9965-4.4267-3.4376-6.4575-5.4248-4.6572-4.557-20.206-18.815-28.768-26.38-3.5901-3.172-7.1806-6.6997-7.9788-7.8393s-3.4226-3.8891-5.832-6.11-4.3807-4.5118-4.3807-5.0909 6.3654 5.2158 14.145 12.877c15.352 15.119 19.29 18.829 26.458 24.93 5.2011 4.4268 11.298 9.9208 17.755 16 5.1757 4.8729 7.9091 7.2071 35.716 30.5 5.5809 4.675 13.36 11.34 17.287 14.81 3.9267 3.4708 9.9278 8.4208 13.336 11 3.408 2.5793 6.7282 5.6678 7.3782 6.8634 0.65 1.1955 2.2527 2.4425 3.5616 2.771s4.584 2.7253 7.278 5.3263c2.694 2.6009 6.4254 6.0789 8.2919 7.7289 1.8665 1.65 6.1696 5.5679 9.5625 8.7064 3.3929 3.1386 7.2431 6.4104 8.5561 7.2707 1.313 0.8603 4.3646 3.393 6.7813 5.6283 2.4167 2.2352 6.5237 5.4466 9.1265 7.1364s4.962 3.7891 5.2425 4.6652c0.28051 0.8762 1.5988 2.268 2.9296 3.093 2.5271 1.5667 18.483 14.668 27.095 22.248 2.75 2.4204 6.3633 5.3397 8.0295 6.4873 1.6662 1.1476 5.0777 4.0391 7.581 6.4255 5.8419 5.569 14.669 13.076 16.763 14.256 0.8948 0.5041 3.8769 2.7745 6.6269 5.0454 2.75 2.2708 6.6698 5.2299 8.7108 6.5758 2.0409 1.3459 4.2545 3.463 4.919 4.7047 0.6645 1.2416 1.566 2.2575 2.0033 2.2575s4.2975 3.15 8.5781 7 8.2704 7 8.8662 7c0.5959 0 3.5222 2.2472 6.503 4.9939 2.9808 2.7466 5.9124 4.9966 6.5146 5 0.6023 0 1.9523 0.9645 3 2.1358 2.2405 2.5047 9.0495 7.0921 11.905 8.0206 1.8942 0.6159 1.8841 0.6556-0.191 0.75-1.205 0.055-2.4921-0.3875-2.8601-0.9831zm6.1077-1.6672c0.4239-0.9625 0.7156-2.65 0.6483-3.75-0.067-1.1-0.2345-122.82-0.3715-270.5l-0.2492-268.5 106.46-0.6037c171.38-0.9718 439.73-0.9222 461.96 0.085 24.516 1.111 35.425 2.6508 56 7.9046 20.814 5.3149 33.419 9.9962 51.961 19.298 24.142 12.112 40.456 23.187 59.43 40.348 18.078 16.351 28.322 28.34 42.955 50.277 8.3844 12.569 23.067 40.113 25.155 47.191 0.4058 1.375 1.6526 4.525 2.7708 7s2.846 7.425 3.8396 11 2.5134 8.975 3.3773 12c6.8842 24.104 9.854 47.514 9.7683 77-0.095 32.725-3.6815 57.389-12.321 84.734-18.564 58.756-57.475 110.8-107.52 143.8-13.704 9.038-32.001 18.787-46.411 24.73-9.6696 3.9878-32.051 11.29-37.715 12.306-2.0816 0.3732-7.1597 1.5273-11.285 2.5649-19.382 4.875-15.689 4.8195-322.36 4.8406-272.83 0.019-286.82-0.066-286.09-1.7302zm-326.22-272.25c-1.1905-0.48-2.5405-1.5398-3-2.3551-0.68292-1.2118-7.1014-8.1638-21.83-23.645-0.78491-0.825-6.2772-6.9-12.205-13.5-5.9279-6.6-11.457-12.526-12.287-13.168-0.83019-0.6426-1.2391-1.4386-0.90879-1.7689 0.64968-0.6497 2.0651 0.7993 18.498 18.937 10.433 11.516 27.27 29.339 32.294 34.188 2.6246 2.5327 2.6012 2.5874-0.56062 1.3125zm-52.552-57.417c-0.94243-0.6891-3.6417-3.7173-5.9984-6.7293-5.5826-7.1348-12.214-14.913-17.62-20.668-2.3842-2.5378-4.9333-5.7555-5.6647-7.1505-0.7314-1.3949-2.9432-4.087-4.9151-5.9824-1.9719-1.8954-3.5853-4.0225-3.5853-4.7269s-1.125-2.0179-2.5-2.9189c-1.375-0.9009-2.5-2.1675-2.5-2.8147 0-0.6471-1.575-2.8464-3.5-4.8873-1.925-2.0408-3.5-4.1439-3.5-4.6735s-1.42-2.5802-3.1556-4.557c-1.7356-1.9767-3.8731-4.9068-4.75-6.5113-1.7726-3.2434-16.631-25.543-20.573-30.875-1.3868-1.8761-2.5214-3.9517-2.5214-4.6125s-1.3983-2.9509-3.1073-5.089c-1.709-2.1381-3.5064-4.7875-3.9944-5.8875-0.48789-1.1-2.6858-4.925-4.8843-8.5s-5.0952-8.8057-6.4372-11.624c-1.342-2.8181-3.7705-7.3181-5.3966-10-1.6262-2.682-3.2852-6.0013-3.6867-7.3763-0.40154-1.375-1.2908-3.175-1.9761-4-1.3319-1.6033-7.6435-13.951-11.756-23-1.3749-3.025-3.9086-8.588-5.6305-12.362-1.7219-3.7742-3.1307-7.4316-3.1307-8.1275s-0.675-1.8255-1.5-2.5102-1.4715-1.9773-1.4366-2.8724c0.0449-1.1527 0.31621-1.001 0.92992 0.5201 0.47659 1.1812 1.3481 2.4453 1.9366 2.809 0.58855 0.3637 1.0701 1.2673 1.0701 2.008 0 2.1491 14.099 31.761 21.443 45.035 1.8256 3.3 5.3977 10.05 7.9378 15 6.0129 11.717 8.9311 16.81 11.514 20.094 1.1577 1.4717 2.1049 3.113 2.1049 3.6472 0 0.5341 1.2752 2.6109 2.8339 4.6151 1.5586 2.0041 3.1474 4.5041 3.5306 5.5555 0.38322 1.0513 2.7879 5.1013 5.3438 9 14.23 21.705 17.524 26.536 18.84 27.628 0.79844 0.6626 1.4517 1.641 1.4517 2.1742 0 1.1483 3.0426 5.1865 8.3218 11.045 2.102 2.3326 4.4204 5.591 5.1519 7.241 0.73156 1.65 4.5536 6.6 8.4934 11 3.9398 4.4 7.8089 9.2151 8.598 10.7s2.0195 3.0602 2.7341 3.5 5.027 5.2997 9.5829 10.8 9.5984 11.535 11.205 13.412c3.1601 3.6902 3.4121 4.6577 0.69578 2.6715zm-135.7-213.83c-0.7766-1.7917-2.4215-5.5076-3.6554-8.2576s-2.9238-6.8-3.7554-9c-0.83165-2.2-3.0616-8.05-4.9554-13-3.7182-9.7186-8.7273-25.3-8.7208-27.128 2e-3 -0.6201-0.66956-1.6865-1.4928-2.3698-1.7331-1.4383-5.5003-12.965-5.5093-16.858-3e-3 -1.4546-0.68259-3.9417-1.5093-5.527s-1.7831-4.7353-2.1253-7c-0.34216-2.2647-1.7095-8.1677-3.0384-13.118-4.2266-15.743-6.1581-25.642-4.39-22.5 0.46422 0.825 1.1533 3.525 1.5312 6 0.37797 2.475 1.2946 6.3 2.0369 8.5s2.3041 8.275 3.4706 13.5 2.7281 11.3 3.4703 13.5 2.1375 6.7 3.1008 10 2.3343 7.35 3.0466 9 2.9414 8.4 4.9534 15 4.2372 13.35 4.9449 15 2.3292 5.925 3.6035 9.5c1.2742 3.575 2.8977 7.625 3.6077 9s1.2937 2.9064 1.2971 3.4032c3e-3 0.4967 1.3779 3.8064 3.0545 7.3549s2.913 6.858 2.7475 7.3545c-0.16548 0.4964-0.93627-0.5633-1.7129-2.355zm-41.095-128.51c-6e-3 -0.9625-0.89034-5.3286-1.9641-9.7026-1.0738-4.3739-1.7654-8.1395-1.5369-8.368 0.22849-0.2285 0.69892 0.87515 1.0454 2.4526 0.34647 1.5774 1.0234 3.993 1.5042 5.368 1.2034 3.4412 2.328 12 1.5767 12-0.33745 0-0.61885-0.7875-0.62535-1.75zm-3.9882-20.75c0-0.275 0.225-0.5 0.5-0.5s0.5 0.225 0.5 0.5-0.225 0.5-0.5 0.5-0.5-0.225-0.5-0.5zm-1-2c0-0.275 0.225-0.5 0.5-0.5s0.5 0.225 0.5 0.5-0.225 0.5-0.5 0.5-0.5-0.225-0.5-0.5zm-0.71399-7c8e-3 -2.75 0.20172-3.7563 0.43157-2.2362 0.22986 1.5201 0.22371 3.7701-0.0136 5-0.23736 1.2299-0.42542-0.0137-0.41792-2.7638zm-1.054-10.5c0-1.925 0.2058-2.7125 0.45733-1.75 0.25152 0.9625 0.25152 2.5375 0 3.5-0.25153 0.9625-0.45733 0.175-0.45733-1.75zm-1.8869-8.5431c-0.32569-0.84872-0.36872-1.7666-0.0956-2.0397 0.27309-0.2731 0.73656 0.42131 1.0299 1.5431 0.62315 2.3829-0.0692 2.7509-0.9343 0.49653zm-1.0591-11.957c8e-3 -2.75 0.20172-3.7563 0.43157-2.2362 0.22986 1.5201 0.22371 3.7701-0.0136 5-0.23736 1.2299-0.42542-0.0137-0.41792-2.7638zm-2.2427-15.75c-0.86763-2.1362-3.1926-27.01-2.921-31.25 0.24227-3.7828 1.9242 7.0159 2.8517 18.309 0.51085 6.22 1.206 12.183 1.5448 13.25 0.85598 2.6969-0.35786 2.4426-1.4755-0.30918zm565.11-535.75c0-1.375 0.227-1.9375 0.5044-1.25s0.2774 1.8125 0 2.5-0.5044 0.125-0.5044-1.25zm-0.9731-9c-0.1018-1.925-0.8601-7.0271-1.685-11.338-2.1767-11.375-1.7061-14.776 0.576-4.162 1.0642 4.95 1.7908 11.25 1.6146 14-0.218 3.4012-0.3796 3.8808-0.5056 1.5zm-5.1059-30.668c-0.043-0.64252-0.3379-1.9925-0.6544-3-0.5471-1.7412-0.5188-1.7434 0.5708-0.0441 0.6304 0.98322 0.9249 2.3332 0.6544 3-0.355 0.87499-0.5138 0.88727-0.5708 0.0441zm-2-7.9151c0.048-1.165 0.285-1.4019 0.6042-0.60417 0.2889 0.72187 0.2534 1.5844-0.079 1.9167-0.3323 0.33229-0.5687-0.25834-0.5253-1.3125zm-1.3954-3.799c-0.3759-0.97967-0.655-2.5319-0.6201-3.4494 0.042-1.1049 0.3893-0.85293 1.0285 0.74611 0.5309 1.3279 0.81 2.8801 0.6202 3.4494-0.1898 0.56931-0.6526 0.23357-1.0286-0.74611zm-1.6835-6.1176c0-0.275 0.225-0.5 0.5-0.5s0.5 0.225 0.5 0.5-0.225 0.5-0.5 0.5-0.5-0.225-0.5-0.5zm-2-8.5c0-0.73333 0.3-1.0333 0.6667-0.66667 0.3666 0.36667 0.3666 0.96667 0 1.3333-0.3667 0.36666-0.6667 0.06666-0.6667-0.66667zm-3-9c0-0.73333 0.3-1.0333 0.6667-0.66667 0.3666 0.36667 0.3666 0.96667 0 1.3333-0.3667 0.36666-0.6667 0.06666-0.6667-0.66667zm-1-3c0-0.73333 0.3-1.0333 0.6667-0.66667 0.3666 0.36667 0.3666 0.96667 0 1.3333-0.3667 0.36666-0.6667 0.06666-0.6667-0.66667zm-1-2.5c0-0.275 0.225-0.5 0.5-0.5s0.5 0.225 0.5 0.5-0.225 0.5-0.5 0.5-0.5-0.225-0.5-0.5zm-1-2c0-0.275 0.225-0.5 0.5-0.5s0.5 0.225 0.5 0.5-0.225 0.5-0.5 0.5-0.5-0.225-0.5-0.5zm-7.2926-16.041c-2.0724-4.1882-3.3268-7.3421-2.7875-7.0089 1.362 0.8418 7.2379 12.576 6.862 13.704-0.1686 0.506-2.0022-2.5067-4.0745-6.6948zm-7.0407-13.126c-0.3667-0.36666-0.6667-1.1317-0.6667-1.7 0-0.6266 0.4658-0.56756 1.1833 0.15 0.6509 0.65084 0.9509 1.4158 0.6667 1.7-0.2842 0.28417-0.8167 0.21667-1.1833-0.15zm-4.1024-8.0402c-0.5427-1.4252-0.4278-1.5401 0.5598-0.5598 0.6834 0.67834 0.9907 1.4852 0.6828 1.7931s-0.8671-0.24711-1.2426-1.2333zm-7.5643-12.293c-0.5887-1.1-0.8454-2-0.5704-2s0.9817 0.9 1.5704 2 0.8454 2 0.5704 2-0.9817-0.9-1.5704-2zm-5.0201-6.5242c-0.6957-0.83829-1.0122-1.7768-0.7034-2.0856 0.3088-0.30882 1.0638 0.37706 1.6777 1.5242 1.3098 2.4475 0.8236 2.7277-0.9743 0.56148zm-5.9799-8.9758c0-0.275 0.225-0.5 0.5-0.5s0.5 0.225 0.5 0.5-0.225 0.5-0.5 0.5-0.5-0.225-0.5-0.5zm-5.0201-5.0242c-1.9324-2.3284-0.55355-2.7672 1.5145-0.48196 0.99854 1.1034 1.3509 2.0061 0.78298 2.0061s-1.6018-0.68587-2.2975-1.5242z" fill="#f95918"/>
 <path d="m1054.6 616.29c-0.3416-0.34167-0.6179-62.309-0.6139-137.7 0-88.959-0.3746-142.35-1.0804-152.08-0.9657-13.32-4.4815-35.659-6.9247-44-1.2861-4.3905-5.5548-18.87-8.1075-27.5-1.2201-4.125-3.4955-10.075-5.0565-13.221-1.561-3.1468-2.8591-6.5218-2.8846-7.5-0.026-0.97819-1.5901-4.4785-3.4768-7.7785s-4.3787-7.8-5.5378-10-3.082-5.6155-4.2732-7.5899-3.5945-6.0245-5.3407-9c-3.3469-5.703-4.3305-7.1406-12.667-18.513-10.037-13.693-39.908-43.356-51.622-51.264-1.9445-1.3126-3.7702-2.7524-4.0573-3.1996-1.4945-2.3284-33.148-22.984-41.478-27.067-4.4-2.1566-9.568-4.8087-11.484-5.8936-1.9164-1.0849-3.9979-1.9725-4.6256-1.9725-0.62764 0-3.6473-1.1083-6.7103-2.4629-8.5934-3.8004-24.628-9.6832-30.18-11.073-2.75-0.68816-8.6-2.2377-13-3.4434-9.1235-2.5001-19.77-4.3861-36.926-6.5413-6.5592-0.82399-12.118-1.69-12.352-1.9245-0.23449-0.23448 1.0822-0.69324 2.9258-1.0195s248.83-0.69274 548.85-0.81448c519.96-0.21099 546.2-0.13704 560.5 1.5795 34.854 4.1846 64.142 12.846 93.5 27.65 36.96 18.638 64.507 40.866 91.148 73.549 23.858 29.268 45.889 76.676 53.907 116 4.128 20.245 4.9458 26.417 6.0955 46 0.9157 15.599 0.9034 23.19-0.056 34.5-3.6356 42.851-17.759 84.958-40.923 122-35.946 57.485-90.605 99.068-154.67 117.67-9.3432 2.7131-22.984 6.0718-27.5 6.7708-2.475 0.38315-5.85 1.0961-7.5 1.5844s-9.75 1.6828-18 2.6544c-14.078 1.658-40.334 1.7808-427.13 1.9969-226.67 0.12663-412.41-0.0493-412.75-0.39098z" fill="#01aa9e"/>
</svg>
